<?xml version="1.0" encoding="UTF-8"?>
<!DOCTYPE svg PUBLIC "-//W3C//DTD SVG 1.1//EN" "http://www.w3.org/Graphics/SVG/1.1/DTD/svg11.dtd">
<!-- Creator: CorelDRAW 2021 (64-Bit) -->
<svg xmlns="http://www.w3.org/2000/svg" xml:space="preserve" width="8.6699mm" height="8.6699mm" version="1.1" style="shape-rendering:geometricPrecision; text-rendering:geometricPrecision; image-rendering:optimizeQuality; fill-rule:evenodd; clip-rule:evenodd"
viewBox="0 0 316.2 316.2"
 xmlns:xlink="http://www.w3.org/1999/xlink"
 xmlns:xodm="http://www.corel.com/coreldraw/odm/2003">
 <defs>
  <style type="text/css">
   <![CDATA[
    .fil0 {fill:url(#id0)}
    .fil1 {fill:url(#id1);fill-rule:nonzero}
    .fil2 {fill:url(#id2);fill-rule:nonzero}
   ]]>
  </style>
  <radialGradient id="id0" gradientUnits="userSpaceOnUse" gradientTransform="matrix(0.999996 -0 -0 1 0 0)" cx="158.1" cy="158.1" r="840.3" fx="158.1" fy="158.1">
   <stop offset="0" style="stop-opacity:1; stop-color:#009416"/>
   <stop offset="1" style="stop-opacity:1; stop-color:#025B04"/>
  </radialGradient>
  <linearGradient id="id1" gradientUnits="userSpaceOnUse" x1="8.8" y1="158.1" x2="307.4" y2="158.1">
   <stop offset="0" style="stop-opacity:1; stop-color:#FBCC16"/>
   <stop offset="0.25098" style="stop-opacity:1; stop-color:#FFFAD3"/>
   <stop offset="0.278431" style="stop-opacity:1; stop-color:#FFFAD3"/>
   <stop offset="0.588235" style="stop-opacity:1; stop-color:#CA9929"/>
   <stop offset="0.6" style="stop-opacity:1; stop-color:#CA9929"/>
   <stop offset="0.870588" style="stop-opacity:1; stop-color:#F1DD90"/>
   <stop offset="1" style="stop-opacity:1; stop-color:#FFFAD3"/>
  </linearGradient>
  <linearGradient id="id2" gradientUnits="userSpaceOnUse" x1="-272.8" y1="16.8" x2="580.5" y2="297.2">
   <stop offset="0" style="stop-opacity:1; stop-color:#CC7754"/>
   <stop offset="0.341176" style="stop-opacity:1; stop-color:#F2B574"/>
   <stop offset="0.521569" style="stop-opacity:1; stop-color:#FFEFC3"/>
   <stop offset="0.658824" style="stop-opacity:1; stop-color:#F2B574"/>
   <stop offset="1" style="stop-opacity:1; stop-color:#CC7754"/>
  </linearGradient>
 </defs>
 <g id="Layer_x0020_1">
  <metadata id="CorelCorpID_0Corel-Layer"/>
  <g id="_2920032373712">
   <path class="fil0" d="M316.2 158.1c0,87.3 -70.8,158.1 -158.1,158.1 -87.3,0 -158.1,-70.8 -158.1,-158.1 0,-87.3 70.8,-158.1 158.1,-158.1 87.3,0 158.1,70.8 158.1,158.1z"/>
   <path class="fil1" d="M158.1 307.4l0 0 1 -0 1 -0 1 -0 1 -0 1 -0 1 -0 1 -0 1 -0 1 -0.1 1 -0.1 0.9 -0.1 0.9 -0.1 0.9 -0.1 0.9 -0.1 0.9 -0.1 0.9 -0.1 0.9 -0.1 0.9 -0.1 0.9 -0.1 0.9 -0.1 0.9 -0.1 0.9 -0.1 0.9 -0.1 0.9 -0.1 0.9 -0.1 0.9 -0.1 0.9 -0.2 0.9 -0.2 0.9 -0.2 0.9 -0.2 0.9 -0.2 0.9 -0.2 0.9 -0.2 0.9 -0.2 0.9 -0.2 0.9 -0.2 0.9 -0.2 0.9 -0.2 0.9 -0.2 0.9 -0.2 0.9 -0.2 0.9 -0.2 0.9 -0.2 0.9 -0.2 0.9 -0.3 0.9 -0.3 0.9 -0.3 0.9 -0.3 0.9 -0.3 0.9 -0.3 0.9 -0.3 0.9 -0.3 0.9 -0.3 0.9 -0.3 0.9 -0.3 0.9 -0.3 0.9 -0.3 0.9 -0.3 0.8 -0.3 0.8 -0.3 0.8 -0.3 0.8 -0.3 0.8 -0.3 0.8 -0.4 0.8 -0.4 0.8 -0.4 0.8 -0.4 0.8 -0.4 0.8 -0.4 0.8 -0.4 0.8 -0.4 0.8 -0.4 0.8 -0.4 0.8 -0.4 0.8 -0.4 0.8 -0.4 0.8 -0.4 0.8 -0.4 0.8 -0.4 0.8 -0.4 0.8 -0.4 0.8 -0.4 0.8 -0.4 0.8 -0.4 0.8 -0.4 0.8 -0.5 0.8 -0.5 0.8 -0.5 0.8 -0.5 0.8 -0.5 0.8 -0.5 0.8 -0.5 0.8 -0.5 0.8 -0.5 0.8 -0.5 0.7 -0.5 0.7 -0.5 0.7 -0.5 0.7 -0.5 0.7 -0.5 0.7 -0.5 0.7 -0.5 0.7 -0.5 0.7 -0.5 0.7 -0.5 0.7 -0.5 0.7 -0.5 0.7 -0.6 0.7 -0.6 0.7 -0.6 0.7 -0.6 0.7 -0.6 0.7 -0.6 0.7 -0.6 0.7 -0.6 0.7 -0.6 0.7 -0.6 0.7 -0.6 0.7 -0.6 0.7 -0.6 0.7 -0.6 0.7 -0.6 0.7 -0.6 0.7 -0.6 0.6 -0.6 0.6 -0.6 0.6 -0.6 0.6 -0.6 0.6 -0.6 0.6 -0.6 0.6 -0.6 0.6 -0.6 0.6 -0.6 0.6 -0.7 0.6 -0.7 0.6 -0.7 0.6 -0.7 0.6 -0.7 0.6 -0.7 0.6 -0.7 0.6 -0.7 0.6 -0.7 0.6 -0.7 0.6 -0.7 0.6 -0.7 0.6 -0.7 0.6 -0.7 0.6 -0.7 0.6 -0.7 0.5 -0.7 0.5 -0.7 0.5 -0.7 0.5 -0.7 0.5 -0.7 0.5 -0.7 0.5 -0.7 0.5 -0.7 0.5 -0.7 0.5 -0.7 0.5 -0.7 0.5 -0.7 0.5 -0.7 0.5 -0.8 0.5 -0.8 0.5 -0.8 0.5 -0.8 0.5 -0.8 0.5 -0.8 0.5 -0.8 0.5 -0.8 0.5 -0.8 0.4 -0.8 0.4 -0.8 0.4 -0.8 0.4 -0.8 0.4 -0.8 0.4 -0.8 0.4 -0.8 0.4 -0.8 0.4 -0.8 0.4 -0.8 0.4 -0.8 0.4 -0.8 0.4 -0.8 0.4 -0.8 0.4 -0.8 0.4 -0.8 0.4 -0.8 0.4 -0.8 0.4 -0.8 0.4 -0.8 0.4 -0.8 0.4 -0.8 0.3 -0.8 0.3 -0.8 0.3 -0.8 0.3 -0.8 0.3 -0.9 0.3 -0.9 0.3 -0.9 0.3 -0.9 0.3 -0.9 0.3 -0.9 0.3 -0.9 0.3 -0.9 0.3 -0.9 0.3 -0.9 0.3 -0.9 0.3 -0.9 0.3 -0.9 0.3 -0.9 0.3 -0.9 0.2 -0.9 0.2 -0.9 0.2 -0.9 0.2 -0.9 0.2 -0.9 0.2 -0.9 0.2 -0.9 0.2 -0.9 0.2 -0.9 0.2 -0.9 0.2 -0.9 0.2 -0.9 0.2 -0.9 0.2 -0.9 0.2 -0.9 0.2 -0.9 0.2 -0.9 0.2 -0.9 0.1 -0.9 0.1 -0.9 0.1 -0.9 0.1 -0.9 0.1 -0.9 0.1 -0.9 0.1 -0.9 0.1 -0.9 0.1 -0.9 0.1 -0.9 0.1 -0.9 0.1 -0.9 0.1 -0.9 0.1 -0.9 0.1 -0.9 0.1 -1 0.1 -0.9 0.1 -1 0 -1 0 -1 0 -1 0 -1 0 -1 0 -1 0 -1 0 -1 -0.5 0 -0 1 -0 1 -0 1 -0 1 -0 1 -0 1 -0 1 -0 1 -0.1 0.9 -0.1 0.9 -0.1 0.9 -0.1 0.9 -0.1 0.9 -0.1 0.9 -0.1 0.9 -0.1 0.9 -0.1 0.9 -0.1 0.9 -0.1 0.9 -0.1 0.9 -0.1 0.9 -0.1 0.9 -0.1 0.9 -0.1 0.9 -0.1 0.9 -0.1 0.9 -0.2 0.9 -0.2 0.9 -0.2 0.9 -0.2 0.9 -0.2 0.9 -0.2 0.9 -0.2 0.9 -0.2 0.9 -0.2 0.9 -0.2 0.9 -0.2 0.9 -0.2 0.9 -0.2 0.9 -0.2 0.9 -0.2 0.9 -0.2 0.9 -0.2 0.9 -0.2 0.9 -0.3 0.9 -0.3 0.9 -0.3 0.9 -0.3 0.9 -0.3 0.9 -0.3 0.9 -0.3 0.9 -0.3 0.9 -0.3 0.9 -0.3 0.9 -0.3 0.9 -0.3 0.9 -0.3 0.9 -0.3 0.9 -0.3 0.8 -0.3 0.8 -0.3 0.8 -0.3 0.8 -0.3 0.8 -0.4 0.8 -0.4 0.8 -0.4 0.8 -0.4 0.8 -0.4 0.8 -0.4 0.8 -0.4 0.8 -0.4 0.8 -0.4 0.8 -0.4 0.8 -0.4 0.8 -0.4 0.8 -0.4 0.8 -0.4 0.8 -0.4 0.8 -0.4 0.8 -0.4 0.8 -0.4 0.8 -0.4 0.8 -0.4 0.8 -0.4 0.8 -0.4 0.8 -0.5 0.8 -0.5 0.8 -0.5 0.8 -0.5 0.8 -0.5 0.8 -0.5 0.8 -0.5 0.8 -0.5 0.8 -0.5 0.7 -0.5 0.7 -0.5 0.7 -0.5 0.7 -0.5 0.7 -0.5 0.7 -0.5 0.7 -0.5 0.7 -0.5 0.7 -0.5 0.7 -0.5 0.7 -0.5 0.7 -0.5 0.7 -0.5 0.7 -0.6 0.7 -0.6 0.7 -0.6 0.7 -0.6 0.7 -0.6 0.7 -0.6 0.7 -0.6 0.7 -0.6 0.7 -0.6 0.7 -0.6 0.7 -0.6 0.7 -0.6 0.7 -0.6 0.7 -0.6 0.7 -0.6 0.7 -0.6 0.7 -0.6 0.6 -0.6 0.6 -0.6 0.6 -0.6 0.6 -0.6 0.6 -0.6 0.6 -0.6 0.6 -0.6 0.6 -0.6 0.6 -0.6 0.6 -0.7 0.6 -0.7 0.6 -0.7 0.6 -0.7 0.6 -0.7 0.6 -0.7 0.6 -0.7 0.6 -0.7 0.6 -0.7 0.6 -0.7 0.6 -0.7 0.6 -0.7 0.6 -0.7 0.6 -0.7 0.6 -0.7 0.6 -0.7 0.6 -0.7 0.5 -0.7 0.5 -0.7 0.5 -0.7 0.5 -0.7 0.5 -0.7 0.5 -0.7 0.5 -0.7 0.5 -0.7 0.5 -0.7 0.5 -0.7 0.5 -0.7 0.5 -0.7 0.5 -0.7 0.5 -0.8 0.5 -0.8 0.5 -0.8 0.5 -0.8 0.5 -0.8 0.5 -0.8 0.5 -0.8 0.5 -0.8 0.5 -0.8 0.4 -0.8 0.4 -0.8 0.4 -0.8 0.4 -0.8 0.4 -0.8 0.4 -0.8 0.4 -0.8 0.4 -0.8 0.4 -0.8 0.4 -0.8 0.4 -0.8 0.4 -0.8 0.4 -0.8 0.4 -0.8 0.4 -0.8 0.4 -0.8 0.4 -0.8 0.4 -0.8 0.4 -0.8 0.4 -0.8 0.4 -0.8 0.4 -0.8 0.3 -0.8 0.3 -0.8 0.3 -0.8 0.3 -0.8 0.3 -0.8 0.3 -0.9 0.3 -0.9 0.3 -0.9 0.3 -0.9 0.3 -0.9 0.3 -0.9 0.3 -0.9 0.3 -0.9 0.3 -0.9 0.3 -0.9 0.3 -0.9 0.3 -0.9 0.3 -0.9 0.3 -0.9 0.2 -0.9 0.2 -0.9 0.2 -0.9 0.2 -0.9 0.2 -0.9 0.2 -0.9 0.2 -0.9 0.2 -0.9 0.2 -0.9 0.2 -0.9 0.2 -0.9 0.2 -0.9 0.2 -0.9 0.2 -0.9 0.2 -0.9 0.2 -0.9 0.2 -0.9 0.2 -0.9 0.1 -0.9 0.1 -0.9 0.1 -0.9 0.1 -0.9 0.1 -0.9 0.1 -0.9 0.1 -0.9 0.1 -0.9 0.1 -0.9 0.1 -0.9 0.1 -0.9 0.1 -0.9 0.1 -0.9 0.1 -0.9 0.1 -0.9 0.1 -0.9 0.1 -1 0.1 -1 0 -1 0 -1 0 -1 0 -1 0 -1 0 -1 0 -1 0 0 0zm-149.3 -148.7l0 0 0 1 0 1 0 1 0 1 0 1 0 1 0 1 0 1 0.1 1 0.1 0.9 0.1 1 0.1 0.9 0.1 0.9 0.1 0.9 0.1 0.9 0.1 0.9 0.1 0.9 0.1 0.9 0.1 0.9 0.1 0.9 0.1 0.9 0.1 0.9 0.1 0.9 0.1 0.9 0.1 0.9 0.1 0.9 0.2 0.9 0.2 0.9 0.2 0.9 0.2 0.9 0.2 0.9 0.2 0.9 0.2 0.9 0.2 0.9 0.2 0.9 0.2 0.9 0.2 0.9 0.2 0.9 0.2 0.9 0.2 0.9 0.2 0.9 0.2 0.9 0.2 0.9 0.2 0.9 0.3 0.9 0.3 0.9 0.3 0.9 0.3 0.9 0.3 0.9 0.3 0.9 0.3 0.9 0.3 0.9 0.3 0.9 0.3 0.9 0.3 0.9 0.3 0.9 0.3 0.9 0.3 0.9 0.3 0.9 0.3 0.8 0.3 0.8 0.3 0.8 0.3 0.8 0.4 0.8 0.4 0.8 0.4 0.8 0.4 0.8 0.4 0.8 0.4 0.8 0.4 0.8 0.4 0.8 0.4 0.8 0.4 0.8 0.4 0.8 0.4 0.8 0.4 0.8 0.4 0.8 0.4 0.8 0.4 0.8 0.4 0.8 0.4 0.8 0.4 0.8 0.4 0.8 0.4 0.8 0.4 0.8 0.5 0.8 0.5 0.8 0.5 0.8 0.5 0.8 0.5 0.8 0.5 0.8 0.5 0.8 0.5 0.8 0.5 0.8 0.5 0.7 0.5 0.7 0.5 0.7 0.5 0.7 0.5 0.7 0.5 0.7 0.5 0.7 0.5 0.7 0.5 0.7 0.5 0.7 0.5 0.7 0.5 0.7 0.5 0.7 0.6 0.7 0.6 0.7 0.6 0.7 0.6 0.7 0.6 0.7 0.6 0.7 0.6 0.7 0.6 0.7 0.6 0.7 0.6 0.7 0.6 0.7 0.6 0.7 0.6 0.7 0.6 0.7 0.6 0.7 0.6 0.7 0.6 0.6 0.6 0.6 0.6 0.6 0.6 0.6 0.6 0.6 0.6 0.6 0.6 0.6 0.6 0.6 0.6 0.6 0.6 0.6 0.7 0.6 0.7 0.6 0.7 0.6 0.7 0.6 0.7 0.6 0.7 0.6 0.7 0.6 0.7 0.6 0.7 0.6 0.7 0.6 0.7 0.6 0.7 0.6 0.7 0.6 0.7 0.6 0.7 0.6 0.7 0.6 0.7 0.5 0.7 0.5 0.7 0.5 0.7 0.5 0.7 0.5 0.7 0.5 0.7 0.5 0.7 0.5 0.7 0.5 0.7 0.5 0.7 0.5 0.7 0.5 0.8 0.5 0.8 0.5 0.8 0.5 0.8 0.5 0.8 0.5 0.8 0.5 0.8 0.5 0.8 0.5 0.8 0.5 0.8 0.5 0.8 0.4 0.8 0.4 0.8 0.4 0.8 0.4 0.8 0.4 0.8 0.4 0.8 0.4 0.8 0.4 0.8 0.4 0.8 0.4 0.8 0.4 0.8 0.4 0.8 0.4 0.8 0.4 0.8 0.4 0.8 0.4 0.8 0.4 0.8 0.4 0.8 0.4 0.8 0.4 0.8 0.4 0.8 0.4 0.8 0.3 0.8 0.3 0.8 0.3 0.8 0.3 0.8 0.3 0.9 0.3 0.9 0.3 0.9 0.3 0.9 0.3 0.9 0.3 0.9 0.3 0.9 0.3 0.9 0.3 0.9 0.3 0.9 0.3 0.9 0.3 0.9 0.3 0.9 0.3 0.9 0.3 0.9 0.2 0.9 0.2 0.9 0.2 0.9 0.2 0.9 0.2 0.9 0.2 0.9 0.2 0.9 0.2 0.9 0.2 0.9 0.2 0.9 0.2 0.9 0.2 0.9 0.2 0.9 0.2 0.9 0.2 0.9 0.2 0.9 0.2 0.9 0.2 0.9 0.1 0.9 0.1 0.9 0.1 0.9 0.1 0.9 0.1 0.9 0.1 0.9 0.1 0.9 0.1 0.9 0.1 0.9 0.1 0.9 0.1 0.9 0.1 0.9 0.1 0.9 0.1 0.9 0.1 0.9 0.1 1 0.1 1 0.1 1 0 1 0 1 0 1 0 1 0 1 0 1 0 1 0 0 -0.5 -1 -0 -1 -0 -1 -0 -1 -0 -1 -0 -1 -0 -1 -0 -1 -0 -1 -0.1 -0.9 -0.1 -0.9 -0.1 -0.9 -0.1 -0.9 -0.1 -0.9 -0.1 -0.9 -0.1 -0.9 -0.1 -0.9 -0.1 -0.9 -0.1 -0.9 -0.1 -0.9 -0.1 -0.9 -0.1 -0.9 -0.1 -0.9 -0.1 -0.9 -0.1 -0.9 -0.1 -0.9 -0.1 -0.9 -0.2 -0.9 -0.2 -0.9 -0.2 -0.9 -0.2 -0.9 -0.2 -0.9 -0.2 -0.9 -0.2 -0.9 -0.2 -0.9 -0.2 -0.9 -0.2 -0.9 -0.2 -0.9 -0.2 -0.9 -0.2 -0.9 -0.2 -0.9 -0.2 -0.9 -0.2 -0.9 -0.2 -0.9 -0.2 -0.9 -0.3 -0.9 -0.3 -0.9 -0.3 -0.9 -0.3 -0.9 -0.3 -0.9 -0.3 -0.9 -0.3 -0.9 -0.3 -0.9 -0.3 -0.9 -0.3 -0.9 -0.3 -0.9 -0.3 -0.9 -0.3 -0.8 -0.3 -0.8 -0.3 -0.8 -0.3 -0.8 -0.3 -0.8 -0.3 -0.8 -0.3 -0.8 -0.4 -0.8 -0.4 -0.8 -0.4 -0.8 -0.4 -0.8 -0.4 -0.8 -0.4 -0.8 -0.4 -0.8 -0.4 -0.8 -0.4 -0.8 -0.4 -0.8 -0.4 -0.8 -0.4 -0.8 -0.4 -0.8 -0.4 -0.8 -0.4 -0.8 -0.4 -0.8 -0.4 -0.8 -0.4 -0.8 -0.4 -0.8 -0.4 -0.8 -0.4 -0.8 -0.4 -0.8 -0.5 -0.8 -0.5 -0.8 -0.5 -0.8 -0.5 -0.8 -0.5 -0.8 -0.5 -0.8 -0.5 -0.8 -0.5 -0.7 -0.5 -0.7 -0.5 -0.7 -0.5 -0.7 -0.5 -0.7 -0.5 -0.7 -0.5 -0.7 -0.5 -0.7 -0.5 -0.7 -0.5 -0.7 -0.5 -0.7 -0.5 -0.7 -0.5 -0.7 -0.5 -0.7 -0.5 -0.7 -0.6 -0.7 -0.6 -0.7 -0.6 -0.7 -0.6 -0.7 -0.6 -0.7 -0.6 -0.7 -0.6 -0.7 -0.6 -0.7 -0.6 -0.7 -0.6 -0.7 -0.6 -0.7 -0.6 -0.7 -0.6 -0.7 -0.6 -0.7 -0.6 -0.7 -0.6 -0.6 -0.6 -0.6 -0.6 -0.6 -0.6 -0.6 -0.6 -0.6 -0.6 -0.6 -0.6 -0.6 -0.6 -0.6 -0.6 -0.6 -0.6 -0.6 -0.6 -0.6 -0.7 -0.6 -0.7 -0.6 -0.7 -0.6 -0.7 -0.6 -0.7 -0.6 -0.7 -0.6 -0.7 -0.6 -0.7 -0.6 -0.7 -0.6 -0.7 -0.6 -0.7 -0.6 -0.7 -0.6 -0.7 -0.6 -0.7 -0.6 -0.7 -0.6 -0.7 -0.5 -0.7 -0.5 -0.7 -0.5 -0.7 -0.5 -0.7 -0.5 -0.7 -0.5 -0.7 -0.5 -0.7 -0.5 -0.7 -0.5 -0.7 -0.5 -0.7 -0.5 -0.7 -0.5 -0.7 -0.5 -0.7 -0.5 -0.7 -0.5 -0.8 -0.5 -0.8 -0.5 -0.8 -0.5 -0.8 -0.5 -0.8 -0.5 -0.8 -0.5 -0.8 -0.5 -0.8 -0.4 -0.8 -0.4 -0.8 -0.4 -0.8 -0.4 -0.8 -0.4 -0.8 -0.4 -0.8 -0.4 -0.8 -0.4 -0.8 -0.4 -0.8 -0.4 -0.8 -0.4 -0.8 -0.4 -0.8 -0.4 -0.8 -0.4 -0.8 -0.4 -0.8 -0.4 -0.8 -0.4 -0.8 -0.4 -0.8 -0.4 -0.8 -0.4 -0.8 -0.4 -0.8 -0.3 -0.8 -0.3 -0.8 -0.3 -0.8 -0.3 -0.8 -0.3 -0.8 -0.3 -0.8 -0.3 -0.9 -0.3 -0.9 -0.3 -0.9 -0.3 -0.9 -0.3 -0.9 -0.3 -0.9 -0.3 -0.9 -0.3 -0.9 -0.3 -0.9 -0.3 -0.9 -0.3 -0.9 -0.3 -0.9 -0.3 -0.9 -0.3 -0.9 -0.2 -0.9 -0.2 -0.9 -0.2 -0.9 -0.2 -0.9 -0.2 -0.9 -0.2 -0.9 -0.2 -0.9 -0.2 -0.9 -0.2 -0.9 -0.2 -0.9 -0.2 -0.9 -0.2 -0.9 -0.2 -0.9 -0.2 -0.9 -0.2 -0.9 -0.2 -0.9 -0.2 -0.9 -0.2 -0.9 -0.1 -0.9 -0.1 -0.9 -0.1 -0.9 -0.1 -0.9 -0.1 -0.9 -0.1 -0.9 -0.1 -0.9 -0.1 -0.9 -0.1 -0.9 -0.1 -0.9 -0.1 -0.9 -0.1 -0.9 -0.1 -0.9 -0.1 -0.9 -0.1 -0.9 -0.1 -0.9 -0.1 -0.9 -0.1 -0.9 -0 -1 -0 -1 -0 -1 -0 -1 -0 -1 -0 -1 -0 -1 0 -1 0 0zm148.7 -149.3l0 0 -1 0 -1 0 -1 0 -1 0 -1 0 -1 0 -1 0 -1 0 -1 0.1 -1 0.1 -0.9 0.1 -0.9 0.1 -0.9 0.1 -0.9 0.1 -0.9 0.1 -0.9 0.1 -0.9 0.1 -0.9 0.1 -0.9 0.1 -0.9 0.1 -0.9 0.1 -0.9 0.1 -0.9 0.1 -0.9 0.1 -0.9 0.1 -0.9 0.1 -0.9 0.2 -0.9 0.2 -0.9 0.2 -0.9 0.2 -0.9 0.2 -0.9 0.2 -0.9 0.2 -0.9 0.2 -0.9 0.2 -0.9 0.2 -0.9 0.2 -0.9 0.2 -0.9 0.2 -0.9 0.2 -0.9 0.2 -0.9 0.2 -0.9 0.2 -0.9 0.3 -0.9 0.3 -0.9 0.3 -0.9 0.3 -0.9 0.3 -0.9 0.3 -0.9 0.3 -0.9 0.3 -0.9 0.3 -0.9 0.3 -0.9 0.3 -0.9 0.3 -0.9 0.3 -0.9 0.3 -0.9 0.3 -0.8 0.3 -0.8 0.3 -0.8 0.3 -0.8 0.3 -0.8 0.3 -0.8 0.4 -0.8 0.4 -0.8 0.4 -0.8 0.4 -0.8 0.4 -0.8 0.4 -0.8 0.4 -0.8 0.4 -0.8 0.4 -0.8 0.4 -0.8 0.4 -0.8 0.4 -0.8 0.4 -0.8 0.4 -0.8 0.4 -0.8 0.4 -0.8 0.4 -0.8 0.4 -0.8 0.4 -0.8 0.4 -0.8 0.4 -0.8 0.5 -0.8 0.5 -0.8 0.5 -0.8 0.5 -0.8 0.5 -0.8 0.5 -0.8 0.5 -0.8 0.5 -0.8 0.5 -0.8 0.5 -0.8 0.5 -0.7 0.5 -0.7 0.5 -0.7 0.5 -0.7 0.5 -0.7 0.5 -0.7 0.5 -0.7 0.5 -0.7 0.5 -0.7 0.5 -0.7 0.5 -0.7 0.5 -0.7 0.6 -0.7 0.6 -0.7 0.6 -0.7 0.6 -0.7 0.6 -0.7 0.6 -0.7 0.6 -0.7 0.6 -0.7 0.6 -0.7 0.6 -0.7 0.6 -0.7 0.6 -0.7 0.6 -0.7 0.6 -0.7 0.6 -0.7 0.6 -0.7 0.6 -0.6 0.6 -0.6 0.6 -0.6 0.6 -0.6 0.6 -0.6 0.6 -0.6 0.6 -0.6 0.6 -0.6 0.6 -0.6 0.6 -0.6 0.7 -0.6 0.7 -0.6 0.7 -0.6 0.7 -0.6 0.7 -0.6 0.7 -0.6 0.7 -0.6 0.7 -0.6 0.7 -0.6 0.7 -0.6 0.7 -0.6 0.7 -0.6 0.7 -0.6 0.7 -0.6 0.7 -0.6 0.7 -0.6 0.7 -0.5 0.7 -0.5 0.7 -0.5 0.7 -0.5 0.7 -0.5 0.7 -0.5 0.7 -0.5 0.7 -0.5 0.7 -0.5 0.7 -0.5 0.7 -0.5 0.7 -0.5 0.7 -0.5 0.8 -0.5 0.8 -0.5 0.8 -0.5 0.8 -0.5 0.8 -0.5 0.8 -0.5 0.8 -0.5 0.8 -0.5 0.8 -0.5 0.8 -0.4 0.8 -0.4 0.8 -0.4 0.8 -0.4 0.8 -0.4 0.8 -0.4 0.8 -0.4 0.8 -0.4 0.8 -0.4 0.8 -0.4 0.8 -0.4 0.8 -0.4 0.8 -0.4 0.8 -0.4 0.8 -0.4 0.8 -0.4 0.8 -0.4 0.8 -0.4 0.8 -0.4 0.8 -0.4 0.8 -0.4 0.8 -0.4 0.8 -0.3 0.8 -0.3 0.8 -0.3 0.8 -0.3 0.8 -0.3 0.8 -0.3 0.9 -0.3 0.9 -0.3 0.9 -0.3 0.9 -0.3 0.9 -0.3 0.9 -0.3 0.9 -0.3 0.9 -0.3 0.9 -0.3 0.9 -0.3 0.9 -0.3 0.9 -0.3 0.9 -0.3 0.9 -0.2 0.9 -0.2 0.9 -0.2 0.9 -0.2 0.9 -0.2 0.9 -0.2 0.9 -0.2 0.9 -0.2 0.9 -0.2 0.9 -0.2 0.9 -0.2 0.9 -0.2 0.9 -0.2 0.9 -0.2 0.9 -0.2 0.9 -0.2 0.9 -0.2 0.9 -0.2 0.9 -0.1 0.9 -0.1 0.9 -0.1 0.9 -0.1 0.9 -0.1 0.9 -0.1 0.9 -0.1 0.9 -0.1 0.9 -0.1 0.9 -0.1 0.9 -0.1 0.9 -0.1 0.9 -0.1 0.9 -0.1 0.9 -0.1 1 -0.1 0.9 -0.1 1 -0.1 1 -0 1 -0 1 -0 1 -0 1 -0 1 -0 1 -0 1 -0 1 0.5 0 0 -1 0 -1 0 -1 0 -1 0 -1 0 -1 0 -1 0 -0.9 0.1 -1 0.1 -0.9 0.1 -0.9 0.1 -0.9 0.1 -0.9 0.1 -0.9 0.1 -0.9 0.1 -0.9 0.1 -0.9 0.1 -0.9 0.1 -0.9 0.1 -0.9 0.1 -0.9 0.1 -0.9 0.1 -0.9 0.1 -0.9 0.1 -0.9 0.1 -0.9 0.2 -0.9 0.2 -0.9 0.2 -0.9 0.2 -0.9 0.2 -0.9 0.2 -0.9 0.2 -0.9 0.2 -0.9 0.2 -0.9 0.2 -0.9 0.2 -0.9 0.2 -0.9 0.2 -0.9 0.2 -0.9 0.2 -0.9 0.2 -0.9 0.2 -0.9 0.2 -0.9 0.3 -0.9 0.3 -0.9 0.3 -0.9 0.3 -0.9 0.3 -0.9 0.3 -0.9 0.3 -0.9 0.3 -0.9 0.3 -0.9 0.3 -0.9 0.3 -0.9 0.3 -0.9 0.3 -0.9 0.3 -0.8 0.3 -0.8 0.3 -0.8 0.3 -0.8 0.3 -0.8 0.3 -0.8 0.3 -0.8 0.4 -0.8 0.4 -0.8 0.4 -0.8 0.4 -0.8 0.4 -0.8 0.4 -0.8 0.4 -0.8 0.4 -0.8 0.4 -0.8 0.4 -0.8 0.4 -0.8 0.4 -0.8 0.4 -0.8 0.4 -0.8 0.4 -0.8 0.4 -0.8 0.4 -0.8 0.4 -0.8 0.4 -0.8 0.4 -0.8 0.4 -0.8 0.5 -0.8 0.5 -0.8 0.5 -0.8 0.5 -0.8 0.5 -0.8 0.5 -0.8 0.5 -0.8 0.5 -0.8 0.5 -0.8 0.5 -0.7 0.5 -0.7 0.5 -0.7 0.5 -0.7 0.5 -0.7 0.5 -0.7 0.5 -0.7 0.5 -0.7 0.5 -0.7 0.5 -0.7 0.5 -0.7 0.5 -0.7 0.5 -0.7 0.6 -0.7 0.6 -0.7 0.6 -0.7 0.6 -0.7 0.6 -0.7 0.6 -0.7 0.6 -0.7 0.6 -0.7 0.6 -0.7 0.6 -0.7 0.6 -0.7 0.6 -0.7 0.6 -0.7 0.6 -0.7 0.6 -0.7 0.6 -0.6 0.6 -0.6 0.6 -0.6 0.6 -0.6 0.6 -0.6 0.6 -0.6 0.6 -0.6 0.6 -0.6 0.6 -0.6 0.6 -0.6 0.6 -0.6 0.7 -0.6 0.7 -0.6 0.7 -0.6 0.7 -0.6 0.7 -0.6 0.7 -0.6 0.7 -0.6 0.7 -0.6 0.7 -0.6 0.7 -0.6 0.7 -0.6 0.7 -0.6 0.7 -0.6 0.7 -0.6 0.7 -0.6 0.7 -0.6 0.7 -0.5 0.7 -0.5 0.7 -0.5 0.7 -0.5 0.7 -0.5 0.7 -0.5 0.7 -0.5 0.7 -0.5 0.7 -0.5 0.7 -0.5 0.7 -0.5 0.7 -0.5 0.7 -0.5 0.7 -0.5 0.8 -0.5 0.8 -0.5 0.8 -0.5 0.8 -0.5 0.8 -0.5 0.8 -0.5 0.8 -0.5 0.8 -0.5 0.8 -0.5 0.8 -0.4 0.8 -0.4 0.8 -0.4 0.8 -0.4 0.8 -0.4 0.8 -0.4 0.8 -0.4 0.8 -0.4 0.8 -0.4 0.8 -0.4 0.8 -0.4 0.8 -0.4 0.8 -0.4 0.8 -0.4 0.8 -0.4 0.8 -0.4 0.8 -0.4 0.8 -0.4 0.8 -0.4 0.8 -0.4 0.8 -0.4 0.8 -0.3 0.8 -0.3 0.8 -0.3 0.8 -0.3 0.8 -0.3 0.8 -0.3 0.9 -0.3 0.9 -0.3 0.9 -0.3 0.9 -0.3 0.9 -0.3 0.9 -0.3 0.9 -0.3 0.9 -0.3 0.9 -0.3 0.9 -0.3 0.9 -0.3 0.9 -0.3 0.9 -0.3 0.9 -0.2 0.9 -0.2 0.9 -0.2 0.9 -0.2 0.9 -0.2 0.9 -0.2 0.9 -0.2 0.9 -0.2 0.9 -0.2 0.9 -0.2 0.9 -0.2 0.9 -0.2 0.9 -0.2 0.9 -0.2 0.9 -0.2 0.9 -0.2 0.9 -0.2 0.9 -0.2 0.9 -0.1 0.9 -0.1 0.9 -0.1 0.9 -0.1 0.9 -0.1 0.9 -0.1 0.9 -0.1 0.9 -0.1 0.9 -0.1 0.9 -0.1 0.9 -0.1 0.9 -0.1 0.9 -0.1 0.9 -0.1 0.9 -0.1 0.9 -0.1 0.9 -0.1 1 -0 1 -0 1 -0 1 -0 1 -0 1 -0 1 -0 1 -0 1 -0 0 0zm149.3 148.7l-0 -1 -0 -1 -0 -1 -0 -1 -0 -1 -0 -1 -0 -1 -0 -1 -0.1 -1 -0.1 -1 -0.1 -0.9 -0.1 -1 -0.1 -0.9 -0.1 -0.9 -0.1 -0.9 -0.1 -0.9 -0.1 -0.9 -0.1 -0.9 -0.1 -0.9 -0.1 -0.9 -0.1 -0.9 -0.1 -0.9 -0.1 -0.9 -0.1 -0.9 -0.1 -0.9 -0.1 -0.9 -0.2 -0.9 -0.2 -0.9 -0.2 -0.9 -0.2 -0.9 -0.2 -0.9 -0.2 -0.9 -0.2 -0.9 -0.2 -0.9 -0.2 -0.9 -0.2 -0.9 -0.2 -0.9 -0.2 -0.9 -0.2 -0.9 -0.2 -0.9 -0.2 -0.9 -0.2 -0.9 -0.2 -0.9 -0.2 -0.9 -0.3 -0.9 -0.3 -0.9 -0.3 -0.9 -0.3 -0.9 -0.3 -0.9 -0.3 -0.9 -0.3 -0.9 -0.3 -0.9 -0.3 -0.9 -0.3 -0.9 -0.3 -0.9 -0.3 -0.9 -0.3 -0.9 -0.3 -0.9 -0.3 -0.8 -0.3 -0.8 -0.3 -0.8 -0.3 -0.8 -0.3 -0.8 -0.4 -0.8 -0.4 -0.8 -0.4 -0.8 -0.4 -0.8 -0.4 -0.8 -0.4 -0.8 -0.4 -0.8 -0.4 -0.8 -0.4 -0.8 -0.4 -0.8 -0.4 -0.8 -0.4 -0.8 -0.4 -0.8 -0.4 -0.8 -0.4 -0.8 -0.4 -0.8 -0.4 -0.8 -0.4 -0.8 -0.4 -0.8 -0.4 -0.8 -0.4 -0.8 -0.4 -0.8 -0.5 -0.8 -0.5 -0.8 -0.5 -0.8 -0.5 -0.8 -0.5 -0.8 -0.5 -0.8 -0.5 -0.8 -0.5 -0.8 -0.5 -0.8 -0.5 -0.8 -0.5 -0.7 -0.5 -0.7 -0.5 -0.7 -0.5 -0.7 -0.5 -0.7 -0.5 -0.7 -0.5 -0.7 -0.5 -0.7 -0.5 -0.7 -0.5 -0.7 -0.5 -0.7 -0.5 -0.7 -0.6 -0.7 -0.6 -0.7 -0.6 -0.7 -0.6 -0.7 -0.6 -0.7 -0.6 -0.7 -0.6 -0.7 -0.6 -0.7 -0.6 -0.7 -0.6 -0.7 -0.6 -0.7 -0.6 -0.7 -0.6 -0.7 -0.6 -0.7 -0.6 -0.7 -0.6 -0.7 -0.6 -0.7 -0.6 -0.6 -0.6 -0.6 -0.6 -0.6 -0.6 -0.6 -0.6 -0.6 -0.6 -0.6 -0.6 -0.6 -0.6 -0.6 -0.7 -0.6 -0.7 -0.6 -0.7 -0.6 -0.7 -0.6 -0.7 -0.6 -0.7 -0.6 -0.7 -0.6 -0.7 -0.6 -0.7 -0.6 -0.7 -0.6 -0.7 -0.6 -0.7 -0.6 -0.7 -0.6 -0.7 -0.6 -0.7 -0.6 -0.7 -0.6 -0.7 -0.6 -0.7 -0.6 -0.7 -0.5 -0.7 -0.5 -0.7 -0.5 -0.7 -0.5 -0.7 -0.5 -0.7 -0.5 -0.7 -0.5 -0.7 -0.5 -0.7 -0.5 -0.7 -0.5 -0.7 -0.5 -0.8 -0.5 -0.8 -0.5 -0.8 -0.5 -0.8 -0.5 -0.8 -0.5 -0.8 -0.5 -0.8 -0.5 -0.8 -0.5 -0.8 -0.5 -0.8 -0.5 -0.8 -0.5 -0.8 -0.4 -0.8 -0.4 -0.8 -0.4 -0.8 -0.4 -0.8 -0.4 -0.8 -0.4 -0.8 -0.4 -0.8 -0.4 -0.8 -0.4 -0.8 -0.4 -0.8 -0.4 -0.8 -0.4 -0.8 -0.4 -0.8 -0.4 -0.8 -0.4 -0.8 -0.4 -0.8 -0.4 -0.8 -0.4 -0.8 -0.4 -0.8 -0.4 -0.8 -0.4 -0.8 -0.3 -0.8 -0.3 -0.8 -0.3 -0.8 -0.3 -0.8 -0.3 -0.9 -0.3 -0.9 -0.3 -0.9 -0.3 -0.9 -0.3 -0.9 -0.3 -0.9 -0.3 -0.9 -0.3 -0.9 -0.3 -0.9 -0.3 -0.9 -0.3 -0.9 -0.3 -0.9 -0.3 -0.9 -0.3 -0.9 -0.3 -0.9 -0.3 -0.9 -0.2 -0.9 -0.2 -0.9 -0.2 -0.9 -0.2 -0.9 -0.2 -0.9 -0.2 -0.9 -0.2 -0.9 -0.2 -0.9 -0.2 -0.9 -0.2 -0.9 -0.2 -0.9 -0.2 -0.9 -0.2 -0.9 -0.2 -0.9 -0.2 -0.9 -0.2 -0.9 -0.2 -0.9 -0.1 -0.9 -0.1 -0.9 -0.1 -0.9 -0.1 -0.9 -0.1 -0.9 -0.1 -0.9 -0.1 -0.9 -0.1 -0.9 -0.1 -0.9 -0.1 -0.9 -0.1 -0.9 -0.1 -0.9 -0.1 -0.9 -0.1 -0.9 -0.1 -0.9 -0.1 -1 -0.1 -1 -0.1 -1 -0 -1 -0 -1 -0 -1 -0 -1 -0 -1 -0 -1 -0 -1 -0 0 0.5 1 0 1 0 1 0 1 0 1 0 1 0 1 0 1 0 1 0 0.9 0.1 0.9 0.1 0.9 0.1 0.9 0.1 0.9 0.1 0.9 0.1 0.9 0.1 0.9 0.1 0.9 0.1 0.9 0.1 0.9 0.1 0.9 0.1 0.9 0.1 0.9 0.1 0.9 0.1 0.9 0.1 0.9 0.1 0.9 0.2 0.9 0.2 0.9 0.2 0.9 0.2 0.9 0.2 0.9 0.2 0.9 0.2 0.9 0.2 0.9 0.2 0.9 0.2 0.9 0.2 0.9 0.2 0.9 0.2 0.9 0.2 0.9 0.2 0.9 0.2 0.9 0.2 0.9 0.2 0.9 0.3 0.9 0.3 0.9 0.3 0.9 0.3 0.9 0.3 0.9 0.3 0.9 0.3 0.9 0.3 0.9 0.3 0.9 0.3 0.9 0.3 0.9 0.3 0.9 0.3 0.8 0.3 0.8 0.3 0.8 0.3 0.8 0.3 0.8 0.3 0.8 0.3 0.8 0.4 0.8 0.4 0.8 0.4 0.8 0.4 0.8 0.4 0.8 0.4 0.8 0.4 0.8 0.4 0.8 0.4 0.8 0.4 0.8 0.4 0.8 0.4 0.8 0.4 0.8 0.4 0.8 0.4 0.8 0.4 0.8 0.4 0.8 0.4 0.8 0.4 0.8 0.4 0.8 0.4 0.8 0.5 0.8 0.5 0.8 0.5 0.8 0.5 0.8 0.5 0.8 0.5 0.8 0.5 0.8 0.5 0.8 0.5 0.7 0.5 0.7 0.5 0.7 0.5 0.7 0.5 0.7 0.5 0.7 0.5 0.7 0.5 0.7 0.5 0.7 0.5 0.7 0.5 0.7 0.5 0.7 0.5 0.7 0.5 0.7 0.5 0.7 0.6 0.7 0.6 0.7 0.6 0.7 0.6 0.7 0.6 0.7 0.6 0.7 0.6 0.7 0.6 0.7 0.6 0.7 0.6 0.7 0.6 0.7 0.6 0.7 0.6 0.7 0.6 0.7 0.6 0.7 0.6 0.6 0.6 0.6 0.6 0.6 0.6 0.6 0.6 0.6 0.6 0.6 0.6 0.6 0.6 0.6 0.6 0.6 0.6 0.6 0.6 0.6 0.6 0.6 0.7 0.6 0.7 0.6 0.7 0.6 0.7 0.6 0.7 0.6 0.7 0.6 0.7 0.6 0.7 0.6 0.7 0.6 0.7 0.6 0.7 0.6 0.7 0.6 0.7 0.6 0.7 0.6 0.7 0.5 0.7 0.5 0.7 0.5 0.7 0.5 0.7 0.5 0.7 0.5 0.7 0.5 0.7 0.5 0.7 0.5 0.7 0.5 0.7 0.5 0.7 0.5 0.7 0.5 0.7 0.5 0.8 0.5 0.8 0.5 0.8 0.5 0.8 0.5 0.8 0.5 0.8 0.5 0.8 0.5 0.8 0.5 0.8 0.4 0.8 0.4 0.8 0.4 0.8 0.4 0.8 0.4 0.8 0.4 0.8 0.4 0.8 0.4 0.8 0.4 0.8 0.4 0.8 0.4 0.8 0.4 0.8 0.4 0.8 0.4 0.8 0.4 0.8 0.4 0.8 0.4 0.8 0.4 0.8 0.4 0.8 0.4 0.8 0.4 0.8 0.4 0.8 0.3 0.8 0.3 0.8 0.3 0.8 0.3 0.8 0.3 0.8 0.3 0.8 0.3 0.9 0.3 0.9 0.3 0.9 0.3 0.9 0.3 0.9 0.3 0.9 0.3 0.9 0.3 0.9 0.3 0.9 0.3 0.9 0.3 0.9 0.3 0.9 0.3 0.9 0.2 0.9 0.2 0.9 0.2 0.9 0.2 0.9 0.2 0.9 0.2 0.9 0.2 0.9 0.2 0.9 0.2 0.9 0.2 0.9 0.2 0.9 0.2 0.9 0.2 0.9 0.2 0.9 0.2 0.9 0.2 0.9 0.2 0.9 0.2 0.9 0.1 0.9 0.1 0.9 0.1 0.9 0.1 0.9 0.1 0.9 0.1 0.9 0.1 0.9 0.1 0.9 0.1 0.9 0.1 0.9 0.1 0.9 0.1 0.9 0.1 0.9 0.1 0.9 0.1 0.9 0.1 0.9 0.1 0.9 0.1 1 0 0.9 0 1 0 1 0 1 0 1 0 1 0 1 0 1z"/>
   <path class="fil2" d="M247.9 220.1l0 -25.9 0 0 0 -6.3 -4.5 0 0 -31.6 4.5 0 0 -6.3 -2.3 0c1.4,-2.7 2.1,-6.1 2.1,-10.4 0,-16 -15.5,-29.6 -30.7,-34.3 1,-0.8 1.7,-1.9 1.7,-3 0,-2.3 -2.6,-4.3 -6,-4.9l-0.5 -10.2c2,-0.4 3.4,-1.6 3.4,-3 0,-1.4 -1.6,-2.6 -3.7,-3l-1.1 -19.1c0.9,-0.2 1.6,-0.9 1.6,-1.9 0,-1 -0.7,-1.8 -1.7,-1.9l-0.3 -9.4 -0.2 9.4c-0.9,0.1 -1.7,0.9 -1.7,1.9 0,0.9 0.7,1.7 1.6,1.9l-0.9 19.1c-2.2,0.4 -3.9,1.6 -3.9,3.1 0,1.4 1.5,2.6 3.7,3l-0.4 10.1c-3.6,0.5 -6.4,2.5 -6.4,4.9 0,1.2 0.7,2.4 2,3.3 -15.8,4.9 -30.4,18.3 -30.4,34.1 0,4.2 0.8,7.7 2.1,10.4l-3.2 0 0 6.3 4.1 0 0 31.6 -4.1 0 0 2.2 -0.1 0 0 51.2c-4.8,-0.6 -9.7,-1.6 -14.5,-3 -52.5,-15.2 -82.8,-70 -67.7,-122.6 14.2,-49.2 63.2,-78.8 112.4,-70 -3.5,-1.4 -7.1,-2.6 -10.8,-3.7 -64.1,-18.5 -131.1,18.5 -149.6,82.6 -18.5,64.1 18.5,131.1 82.6,149.6 64.1,18.5 131.1,-18.5 149.6,-82.6 1.1,-3.7 1.9,-7.4 2.7,-11.2 -6.4,15.9 -16.7,29.3 -29.4,39.6zm-28 -32.1l0 0 -18.9 0 0 -21.5c0,-2.7 0.9,-5.4 2.6,-7.5l6.4 -8.4 7 8.2c1.9,2.2 2.9,5.1 2.9,8l0 21.1zm-71.6 -75.7l0 0 5.4 -8 -9.6 0.6 -6 -7.6 -2.4 9.4 -9.1 3.3 8.2 5.2 0.4 9.6 7.4 -6.2 9.3 2.6 -3.6 -9zm-5.7 42.7l0 0 3.1 -4.7 -5.6 0.4 -3.5 -4.4 -1.4 5.4 -5.2 1.9 4.7 3 0.2 5.6 4.3 -3.6 5.4 1.5 -2.1 -5.2zm-49.8 -86.2l0 0c-23.1,18.1 -38.4,45.1 -42,73.6 -3.9,28.4 3.9,58 21.2,80.6 8.5,11.4 19.3,21.1 31.6,28.3 1.5,0.9 3,1.9 4.6,2.7l4.8 2.3c1.6,0.7 3.2,1.6 4.9,2.2l5 1.8c1.7,0.6 3.4,1.2 5.1,1.8l5.2 1.4c1.7,0.5 3.5,0.8 5.2,1.2 1.7,0.4 3.5,0.7 5.3,0.9 28.4,4.3 58.4,-3.1 82.3,-20.2 -5.6,4.8 -11.7,9 -18.1,12.6 -6.5,3.5 -13.3,6.6 -20.4,8.7 -14.2,4.3 -29.4,5.9 -44.4,4.1 -7.4,-0.9 -14.9,-2.3 -22,-4.9l-5.4 -1.8c-1.8,-0.6 -3.5,-1.5 -5.2,-2.2l-5.2 -2.3c-1.7,-0.8 -3.3,-1.8 -4.9,-2.7 -13.1,-7.5 -24.6,-17.7 -33.7,-29.7 -9,-12.1 -15.7,-26 -19.3,-40.6 -3.6,-14.6 -4.2,-30 -1.7,-44.8l0.4 -2.8c0.1,-0.9 0.4,-1.8 0.6,-2.7l1.4 -5.4c0.5,-1.8 0.9,-3.6 1.5,-5.4 0.6,-1.8 1.2,-3.5 1.9,-5.3 2.7,-7 6.1,-13.7 10.1,-19.9 8.2,-12.4 18.7,-23.2 31.1,-31.2zm117.5 46l0 0c-7.7,-0.1 -15.3,3 -21,8.3 -5.7,5.3 -9.4,12.8 -10.1,21 -0.8,-8.2 2.2,-16.8 8.1,-23 2.9,-3.1 6.5,-5.6 10.4,-7.3 3.9,-1.7 8.3,-2.6 12.6,-2.6 4.3,0 8.6,0.9 12.6,2.6 3.9,1.7 7.5,4.2 10.4,7.3 5.9,6.2 8.9,14.9 8.1,23 -0.8,-8.1 -4.4,-15.7 -10.1,-21 -5.7,-5.3 -13.3,-8.3 -21,-8.3z"/>
  </g>
 </g>
</svg>
